<?xml version="1.0" encoding="UTF-8" standalone="no"?>
<svg
   xmlns:dc="http://purl.org/dc/elements/1.1/"
   xmlns:cc="http://creativecommons.org/ns#"
   xmlns:rdf="http://www.w3.org/1999/02/22-rdf-syntax-ns#"
   xmlns:svg="http://www.w3.org/2000/svg"
   xmlns="http://www.w3.org/2000/svg"
   xmlns:sodipodi="http://sodipodi.sourceforge.net/DTD/sodipodi-0.dtd"
   xmlns:inkscape="http://www.inkscape.org/namespaces/inkscape"
   width="1220mm"
   height="600mm"
   version="1.1"
   xml:space="preserve"
   style="clip-rule:evenodd;fill-rule:evenodd;stroke-linecap:round;stroke-linejoin:round;stroke-miterlimit:1.5"
   id="svg2"
   inkscape:version="0.91 r13725"
   sodipodi:docname="box-led-5.5mm.svg"><metadata
     id="metadata18"><rdf:RDF><cc:Work
         rdf:about=""><dc:format>image/svg+xml</dc:format><dc:type
           rdf:resource="http://purl.org/dc/dcmitype/StillImage" /><dc:title></dc:title></cc:Work></rdf:RDF></metadata><defs
     id="defs16" /><sodipodi:namedview
     pagecolor="#ffffff"
     bordercolor="#666666"
     borderopacity="1"
     objecttolerance="10"
     gridtolerance="10"
     guidetolerance="10"
     inkscape:pageopacity="0"
     inkscape:pageshadow="2"
     inkscape:window-width="1750"
     inkscape:window-height="998"
     id="namedview14"
     showgrid="false"
     inkscape:zoom="0.20954115"
     inkscape:cx="1809.801"
     inkscape:cy="1007.6989"
     inkscape:window-x="2011"
     inkscape:window-y="729"
     inkscape:window-maximized="0"
     inkscape:current-layer="svg2"
     units="mm" /><path
     inkscape:connector-curvature="0"
     d="m 1326.9468,2075.7521 -38.6,0 0,15.6 -39.8,0 0,-15.6 -38.7,0 0,15.6 -39.7,0 0,-15.6 -38.7,0 0,15.6 -39.8,0 0,-15.6 -38.6,0 0,15.6 -39.8,0 0,-15.6 -38.69999,0 0,15.6 -39.70003,0 0,-15.6 -38.7,0 0,15.6 -39.8,0 0,-15.6 -38.6,0 0,15.6 -39.8,0 0,-15.6 -38.6,0 0,15.6 -39.8,0 0,-15.6 -38.7,0 0,15.6 -39.7,0 0,-15.6 -38.7,0 0,15.6 -39.8,0 0,-15.6 -38.6,0 0,15.6 -39.8,0 0,-15.6 -38.7,0 0,15.6 -39.7,0 0,-15.6 -38.7,0 0,15.6 -39.8,0 0,-15.6 -38.6,0 0,15.6 -39.8,0 0,-15.6 -38.6,0 0,15.6 -39.5,0 0,-56.6 15.5,0 0,-57.5 -15.5,0 0,-56.6 1827.50002,0 0,56.6 15.5,0 0,57.5 -15.5,0 0,56.6 -24,0 0,-15.6 -38.6,0 0,15.6 -39.8,0 0,-15.6 -38.6,0 0,15.6 -39.8,0 0,-15.6 -38.7,0 0,15.6 -39.7,0 0,-15.6 -38.7,0 0,15.6 -39.8,0 0,-15.6 -38.6,0 0,15.6 -39.8,0 0,-15.6 -38.6,0 0,15.6 -39.8,0 0,-15.6 -38.7,0 0,15.6 -39.8,0 0,-15.6 -38.6,0 0,15.6 -39.8,0 z"
     style="clip-rule:evenodd;fill:none;fill-rule:evenodd;stroke:#000000;stroke-width:1.0629921;stroke-linecap:round;stroke-linejoin:round;stroke-miterlimit:1.5;stroke-dasharray:none;stroke-opacity:1"
     id="path4291" /><path
     inkscape:connector-curvature="0"
     d="m 2453.0535,621.79857 0,-39.4 -15.6,0 0,-40.5 15.6,0 0,-39.3 -15.6,0 0,-40.5 15.6,0 0,-39.4 -15.6,0 0,-40.4 15.6,0 0,-39.4 -15.6,0 0,-40.5 15.6,0 0,-39.3 -15.6,0 0,-40.5 15.6,0 0,-39.4 -15.6,0 0,-40.4 15.6,0 0,-39.4 -15.6,0 0,-40.200004 57.1,0 0,15.6 56.4,0 0,-15.6 57.1,0 0,1062.200034 -56.6,0 0,15.5 -57.4,0 0,-15.5 -56.6,0 0,-24.7 15.6,0 0,-39.3 -15.6,0 0,-40.5 15.6,0 0,-39.30003 -15.6,0 0,-40.5 15.6,0 0,-39.4 -15.6,0 0,-40.4 15.6,0 0,-39.4 -15.6,0 0,-40.5 15.6,0 0,-39.3 -15.6,0 0,-40.5 15.6,0 0,-39.4 -15.6,0 0,-40.4 z"
     style="clip-rule:evenodd;fill:none;fill-rule:evenodd;stroke:#000000;stroke-width:1.0629921;stroke-linecap:round;stroke-linejoin:round;stroke-miterlimit:1.5;stroke-dasharray:none;stroke-opacity:1"
     id="path4293" /><g
     id="g4327"><path
       inkscape:connector-curvature="0"
       id="path4217"
       d="m 172.8344,1441.141 a 11.870074,11.870074 0 0 1 11.87,11.87 11.870074,11.870074 0 0 1 -11.87,11.8701 11.870074,11.870074 0 0 1 -11.8701,-11.8701 11.870074,11.870074 0 0 1 11.8701,-11.87 z"
       style="fill:none;fill-opacity:1;fill-rule:nonzero;stroke:#000000;stroke-width:1.0629921;stroke-miterlimit:1.5;stroke-dasharray:none;stroke-opacity:1" /><path
       style="fill:none;fill-opacity:1;fill-rule:nonzero;stroke:#000000;stroke-width:1.0629921;stroke-miterlimit:1.5;stroke-dasharray:none;stroke-opacity:1"
       d="m 172.8344,1121.698 a 11.870074,11.870074 0 0 1 11.87,11.87 11.870074,11.870074 0 0 1 -11.87,11.8701 11.870074,11.870074 0 0 1 -11.8701,-11.8701 11.870074,11.870074 0 0 1 11.8701,-11.87 z"
       id="path4220"
       inkscape:connector-curvature="0" /><path
       style="fill:none;fill-opacity:1;fill-rule:nonzero;stroke:#000000;stroke-width:1.0629921;stroke-miterlimit:1.5;stroke-dasharray:none;stroke-opacity:1"
       d="m 569.8343,1441.141 a 11.870074,11.870074 0 0 1 11.87,11.87 11.870074,11.870074 0 0 1 -11.87,11.8701 11.870074,11.870074 0 0 1 -11.8701,-11.8701 11.870074,11.870074 0 0 1 11.8701,-11.87 z"
       id="path4222"
       inkscape:connector-curvature="0" /><path
       inkscape:connector-curvature="0"
       id="path4224"
       d="m 569.8343,1121.698 a 11.870074,11.870074 0 0 1 11.87,11.87 11.870074,11.870074 0 0 1 -11.87,11.8701 11.870074,11.870074 0 0 1 -11.8701,-11.8701 11.870074,11.870074 0 0 1 11.8701,-11.87 z"
       style="fill:none;fill-opacity:1;fill-rule:nonzero;stroke:#000000;stroke-width:1.0629921;stroke-miterlimit:1.5;stroke-dasharray:none;stroke-opacity:1" /><path
       style="fill:none;fill-opacity:1;fill-rule:nonzero;stroke:#000000;stroke-width:1.0629921;stroke-miterlimit:1.5;stroke-dasharray:none;stroke-opacity:1"
       d="m 626.8876,1441.141 a 11.870074,11.870074 0 0 1 11.87,11.87 11.870074,11.870074 0 0 1 -11.87,11.8701 11.870074,11.870074 0 0 1 -11.8701,-11.8701 11.870074,11.870074 0 0 1 11.8701,-11.87 z"
       id="path4226"
       inkscape:connector-curvature="0" /><path
       inkscape:connector-curvature="0"
       id="path4228"
       d="m 626.8876,1121.698 a 11.870074,11.870074 0 0 1 11.87,11.87 11.870074,11.870074 0 0 1 -11.87,11.8701 11.870074,11.870074 0 0 1 -11.8701,-11.8701 11.870074,11.870074 0 0 1 11.8701,-11.87 z"
       style="fill:none;fill-opacity:1;fill-rule:nonzero;stroke:#000000;stroke-width:1.0629921;stroke-miterlimit:1.5;stroke-dasharray:none;stroke-opacity:1" /><path
       inkscape:connector-curvature="0"
       id="path4230"
       d="m 1023.8876,1441.141 a 11.870074,11.870074 0 0 1 11.87,11.87 11.870074,11.870074 0 0 1 -11.87,11.8701 11.870074,11.870074 0 0 1 -11.8701,-11.8701 11.870074,11.870074 0 0 1 11.8701,-11.87 z"
       style="fill:none;fill-opacity:1;fill-rule:nonzero;stroke:#000000;stroke-width:1.0629921;stroke-miterlimit:1.5;stroke-dasharray:none;stroke-opacity:1" /><path
       style="fill:none;fill-opacity:1;fill-rule:nonzero;stroke:#000000;stroke-width:1.0629921;stroke-miterlimit:1.5;stroke-dasharray:none;stroke-opacity:1"
       d="m 1023.8876,1121.698 a 11.870074,11.870074 0 0 1 11.87,11.87 11.870074,11.870074 0 0 1 -11.87,11.8701 11.870074,11.870074 0 0 1 -11.8701,-11.8701 11.870074,11.870074 0 0 1 11.8701,-11.87 z"
       id="path4232"
       inkscape:connector-curvature="0" /><path
       style="fill:none;fill-opacity:1;fill-rule:nonzero;stroke:#000000;stroke-width:1.0629921;stroke-miterlimit:1.5;stroke-dasharray:none;stroke-opacity:1"
       d="m 172.8344,987.0525 a 11.870074,11.870074 0 0 1 11.87,11.87 11.870074,11.870074 0 0 1 -11.87,11.8701 11.870074,11.870074 0 0 1 -11.8701,-11.8701 11.870074,11.870074 0 0 1 11.8701,-11.87 z"
       id="path4246"
       inkscape:connector-curvature="0" /><path
       inkscape:connector-curvature="0"
       id="path4248"
       d="m 172.8344,667.6095 a 11.870074,11.870074 0 0 1 11.87,11.87 11.870074,11.870074 0 0 1 -11.87,11.8701 11.870074,11.870074 0 0 1 -11.8701,-11.8701 11.870074,11.870074 0 0 1 11.8701,-11.87 z"
       style="fill:none;fill-opacity:1;fill-rule:nonzero;stroke:#000000;stroke-width:1.0629921;stroke-miterlimit:1.5;stroke-dasharray:none;stroke-opacity:1" /><path
       inkscape:connector-curvature="0"
       id="path4250"
       d="m 569.8343,987.0525 a 11.870074,11.870074 0 0 1 11.87,11.87 11.870074,11.870074 0 0 1 -11.87,11.8701 11.870074,11.870074 0 0 1 -11.8701,-11.8701 11.870074,11.870074 0 0 1 11.8701,-11.87 z"
       style="fill:none;fill-opacity:1;fill-rule:nonzero;stroke:#000000;stroke-width:1.0629921;stroke-miterlimit:1.5;stroke-dasharray:none;stroke-opacity:1" /><path
       style="fill:none;fill-opacity:1;fill-rule:nonzero;stroke:#000000;stroke-width:1.0629921;stroke-miterlimit:1.5;stroke-dasharray:none;stroke-opacity:1"
       d="m 569.8343,667.6095 a 11.870074,11.870074 0 0 1 11.87,11.87 11.870074,11.870074 0 0 1 -11.87,11.8701 11.870074,11.870074 0 0 1 -11.8701,-11.8701 11.870074,11.870074 0 0 1 11.8701,-11.87 z"
       id="path4252"
       inkscape:connector-curvature="0" /><path
       inkscape:connector-curvature="0"
       id="path4254"
       d="m 626.8876,987.0525 a 11.870074,11.870074 0 0 1 11.87,11.87 11.870074,11.870074 0 0 1 -11.87,11.8701 11.870074,11.870074 0 0 1 -11.8701,-11.8701 11.870074,11.870074 0 0 1 11.8701,-11.87 z"
       style="fill:none;fill-opacity:1;fill-rule:nonzero;stroke:#000000;stroke-width:1.0629921;stroke-miterlimit:1.5;stroke-dasharray:none;stroke-opacity:1" /><path
       style="fill:none;fill-opacity:1;fill-rule:nonzero;stroke:#000000;stroke-width:1.0629921;stroke-miterlimit:1.5;stroke-dasharray:none;stroke-opacity:1"
       d="m 626.8876,667.6095 a 11.870074,11.870074 0 0 1 11.87,11.87 11.870074,11.870074 0 0 1 -11.87,11.8701 11.870074,11.870074 0 0 1 -11.8701,-11.8701 11.870074,11.870074 0 0 1 11.8701,-11.87 z"
       id="path4256"
       inkscape:connector-curvature="0" /><path
       style="fill:none;fill-opacity:1;fill-rule:nonzero;stroke:#000000;stroke-width:1.0629921;stroke-miterlimit:1.5;stroke-dasharray:none;stroke-opacity:1"
       d="m 1023.8876,987.0525 a 11.870074,11.870074 0 0 1 11.87,11.87 11.870074,11.870074 0 0 1 -11.87,11.8701 11.870074,11.870074 0 0 1 -11.8701,-11.8701 11.870074,11.870074 0 0 1 11.8701,-11.87 z"
       id="path4258"
       inkscape:connector-curvature="0" /><path
       inkscape:connector-curvature="0"
       id="path4260"
       d="m 1023.8876,667.6095 a 11.870074,11.870074 0 0 1 11.87,11.87 11.870074,11.870074 0 0 1 -11.87,11.8701 11.870074,11.870074 0 0 1 -11.8701,-11.8701 11.870074,11.870074 0 0 1 11.8701,-11.87 z"
       style="fill:none;fill-opacity:1;fill-rule:nonzero;stroke:#000000;stroke-width:1.0629921;stroke-miterlimit:1.5;stroke-dasharray:none;stroke-opacity:1" /><path
       inkscape:connector-curvature="0"
       id="path4262"
       d="m 172.8344,532.9645 a 11.870074,11.870074 0 0 1 11.87,11.87 11.870074,11.870074 0 0 1 -11.87,11.8701 11.870074,11.870074 0 0 1 -11.8701,-11.8701 11.870074,11.870074 0 0 1 11.8701,-11.87 z"
       style="fill:none;fill-opacity:1;fill-rule:nonzero;stroke:#000000;stroke-width:1.0629921;stroke-miterlimit:1.5;stroke-dasharray:none;stroke-opacity:1" /><path
       style="fill:none;fill-opacity:1;fill-rule:nonzero;stroke:#000000;stroke-width:1.0629921;stroke-miterlimit:1.5;stroke-dasharray:none;stroke-opacity:1"
       d="m 172.8344,213.5215 a 11.870074,11.870074 0 0 1 11.87,11.87 11.870074,11.870074 0 0 1 -11.87,11.8701 11.870074,11.870074 0 0 1 -11.8701,-11.8701 11.870074,11.870074 0 0 1 11.8701,-11.87 z"
       id="path4264"
       inkscape:connector-curvature="0" /><path
       style="fill:none;fill-opacity:1;fill-rule:nonzero;stroke:#000000;stroke-width:1.0629921;stroke-miterlimit:1.5;stroke-dasharray:none;stroke-opacity:1"
       d="m 569.8343,532.9645 a 11.870074,11.870074 0 0 1 11.87,11.87 11.870074,11.870074 0 0 1 -11.87,11.8701 11.870074,11.870074 0 0 1 -11.8701,-11.8701 11.870074,11.870074 0 0 1 11.8701,-11.87 z"
       id="path4266"
       inkscape:connector-curvature="0" /><path
       inkscape:connector-curvature="0"
       id="path4268"
       d="m 569.8343,213.5215 a 11.870074,11.870074 0 0 1 11.87,11.87 11.870074,11.870074 0 0 1 -11.87,11.8701 11.870074,11.870074 0 0 1 -11.8701,-11.8701 11.870074,11.870074 0 0 1 11.8701,-11.87 z"
       style="fill:none;fill-opacity:1;fill-rule:nonzero;stroke:#000000;stroke-width:1.0629921;stroke-miterlimit:1.5;stroke-dasharray:none;stroke-opacity:1" /><path
       style="fill:none;fill-opacity:1;fill-rule:nonzero;stroke:#000000;stroke-width:1.0629921;stroke-miterlimit:1.5;stroke-dasharray:none;stroke-opacity:1"
       d="m 626.8876,532.9645 a 11.870074,11.870074 0 0 1 11.87,11.87 11.870074,11.870074 0 0 1 -11.87,11.8701 11.870074,11.870074 0 0 1 -11.8701,-11.8701 11.870074,11.870074 0 0 1 11.8701,-11.87 z"
       id="path4270"
       inkscape:connector-curvature="0" /><path
       inkscape:connector-curvature="0"
       id="path4272"
       d="m 626.8876,213.5215 a 11.870074,11.870074 0 0 1 11.87,11.87 11.870074,11.870074 0 0 1 -11.87,11.8701 11.870074,11.870074 0 0 1 -11.8701,-11.8701 11.870074,11.870074 0 0 1 11.8701,-11.87 z"
       style="fill:none;fill-opacity:1;fill-rule:nonzero;stroke:#000000;stroke-width:1.0629921;stroke-miterlimit:1.5;stroke-dasharray:none;stroke-opacity:1" /><path
       inkscape:connector-curvature="0"
       id="path4274"
       d="m 1023.8876,532.9645 a 11.870074,11.870074 0 0 1 11.87,11.87 11.870074,11.870074 0 0 1 -11.87,11.8701 11.870074,11.870074 0 0 1 -11.8701,-11.8701 11.870074,11.870074 0 0 1 11.8701,-11.87 z"
       style="fill:none;fill-opacity:1;fill-rule:nonzero;stroke:#000000;stroke-width:1.0629921;stroke-miterlimit:1.5;stroke-dasharray:none;stroke-opacity:1" /><path
       style="fill:none;fill-opacity:1;fill-rule:nonzero;stroke:#000000;stroke-width:1.0629921;stroke-miterlimit:1.5;stroke-dasharray:none;stroke-opacity:1"
       d="m 1023.8876,213.5215 a 11.870074,11.870074 0 0 1 11.87,11.87 11.870074,11.870074 0 0 1 -11.87,11.8701 11.870074,11.870074 0 0 1 -11.8701,-11.8701 11.870074,11.870074 0 0 1 11.8701,-11.87 z"
       id="path4276"
       inkscape:connector-curvature="0" /><path
       inkscape:connector-curvature="0"
       id="rect4278"
       d="m 893.73438,995.4768 a 96.537506,83.411851 0 0 0 96.5215,-83.1308 l 36.45122,0 0,-146.2891 -167.71492,0 a 96.537506,83.411851 0 0 0 -96.5156,-82.8477 96.537506,83.411851 0 0 0 -96.5039,82.8477 l -42.4102,0 0,146.2891 173.6446,0 a 96.537506,83.411851 0 0 0 96.5273,83.1308 z"
       style="fill:none;fill-opacity:1;fill-rule:nonzero;stroke:#000000;stroke-width:1.0629921;stroke-miterlimit:1.5;stroke-dasharray:none;stroke-opacity:1" /><path
       inkscape:connector-curvature="0"
       style="fill:none;fill-opacity:1;fill-rule:nonzero;stroke:#000000;stroke-width:1.0629921;stroke-miterlimit:1.5;stroke-dasharray:none;stroke-opacity:1"
       d="m 893.98718,1449.4233 a 96.537506,83.411851 0 0 0 96.5214,-83.1308 l 36.45122,0 0,-146.2891 -167.71492,0 a 96.537506,83.411851 0 0 0 -96.5156,-82.8477 96.537506,83.411851 0 0 0 -96.5039,82.8477 l -42.4102,0 0,146.2891 173.6446,0 a 96.537506,83.411851 0 0 0 96.5274,83.1308 z"
       id="path4308" /><path
       id="path4346"
       d="m 439.93398,1449.4234 a 96.537506,83.411851 0 0 0 96.5214,-83.1309 l 36.4512,0 0,-146.2891 -167.71493,0 a 96.537506,83.411851 0 0 0 -96.51565,-82.8477 96.537506,83.411851 0 0 0 -96.5039,82.8477 l -42.4102,0 0,146.2891 173.6447,0 a 96.537506,83.411851 0 0 0 96.52738,83.1309 z"
       style="fill:none;fill-opacity:1;fill-rule:nonzero;stroke:#000000;stroke-width:1.0629921;stroke-miterlimit:1.5;stroke-dasharray:none;stroke-opacity:1"
       inkscape:connector-curvature="0" /><path
       inkscape:connector-curvature="0"
       style="fill:none;fill-opacity:1;fill-rule:nonzero;stroke:#000000;stroke-width:1.0629921;stroke-miterlimit:1.5;stroke-dasharray:none;stroke-opacity:1"
       d="m 439.93398,995.3349 a 96.537506,83.411851 0 0 0 96.5214,-83.1309 l 36.4512,0 0,-146.2891 -167.71493,0 A 96.537506,83.411851 0 0 0 308.676,683.0672 96.537506,83.411851 0 0 0 212.1721,765.9149 l -42.4102,0 0,146.2891 173.6447,0 a 96.537506,83.411851 0 0 0 96.52738,83.1309 z"
       id="path4348" /><path
       id="path4350"
       d="m 439.93398,541.2469 a 96.537506,83.411851 0 0 0 96.5214,-83.1309 l 36.4512,0 0,-146.2891 -167.71493,0 A 96.537506,83.411851 0 0 0 308.676,228.9792 96.537506,83.411851 0 0 0 212.1721,311.8269 l -42.4102,0 0,146.2891 173.6447,0 a 96.537506,83.411851 0 0 0 96.52738,83.1309 z"
       style="fill:none;fill-opacity:1;fill-rule:nonzero;stroke:#000000;stroke-width:1.0629921;stroke-miterlimit:1.5;stroke-dasharray:none;stroke-opacity:1"
       inkscape:connector-curvature="0" /><path
       inkscape:connector-curvature="0"
       style="fill:none;fill-opacity:1;fill-rule:nonzero;stroke:#000000;stroke-width:1.0629921;stroke-miterlimit:1.5;stroke-dasharray:none;stroke-opacity:1"
       d="m 893.98718,541.2469 a 96.537506,83.411851 0 0 0 96.5214,-83.1309 l 36.45122,0 0,-146.2891 -167.71492,0 a 96.537506,83.411851 0 0 0 -96.5156,-82.8477 96.537506,83.411851 0 0 0 -96.5039,82.8477 l -42.4102,0 0,146.2891 173.6446,0 a 96.537506,83.411851 0 0 0 96.5274,83.1309 z"
       id="path4352" /><path
       inkscape:connector-curvature="0"
       id="path4516"
       d="m 954.51351,199.7634 a 8.3267673,8.3268055 0 0 1 -8.32676,-8.3268 8.3267673,8.3268055 0 0 1 8.32676,-8.3267 8.3267673,8.3268055 0 0 1 8.32678,8.3267 8.3267673,8.3268055 0 0 1 -8.32678,8.3268 z"
       style="fill:none;fill-opacity:1;fill-rule:nonzero;stroke:#000000;stroke-width:1.0629921;stroke-miterlimit:1.5;stroke-dasharray:none;stroke-opacity:1" /><path
       style="fill:none;fill-opacity:1;fill-rule:nonzero;stroke:#000000;stroke-width:1.0629921;stroke-miterlimit:1.5;stroke-dasharray:none;stroke-opacity:1"
       d="m 666.99934,590.9009 a 8.3267673,8.3268055 0 0 1 -8.32676,-8.3268 8.3267673,8.3268055 0 0 1 8.32676,-8.3267 8.3267673,8.3268055 0 0 1 8.32678,8.3267 8.3267673,8.3268055 0 0 1 -8.32678,8.3268 z"
       id="path4519"
       inkscape:connector-curvature="0" /><path
       inkscape:connector-curvature="0"
       id="path4521"
       d="m 955.8394,651.8918 a 8.3267673,8.3268055 0 0 1 -8.32676,-8.3268 8.3267673,8.3268055 0 0 1 8.32676,-8.3267 8.3267673,8.3268055 0 0 1 8.32678,8.3267 8.3267673,8.3268055 0 0 1 -8.32678,8.3268 z"
       style="fill:none;fill-opacity:1;fill-rule:nonzero;stroke:#000000;stroke-width:1.0629921;stroke-miterlimit:1.5;stroke-dasharray:none;stroke-opacity:1" /><path
       style="fill:none;fill-opacity:1;fill-rule:nonzero;stroke:#000000;stroke-width:1.0629921;stroke-miterlimit:1.5;stroke-dasharray:none;stroke-opacity:1"
       d="m 666.33639,1045.6811 a 8.3267673,8.3268055 0 0 1 -8.32676,-8.3268 8.3267673,8.3268055 0 0 1 8.32676,-8.3267 8.3267673,8.3268055 0 0 1 8.32678,8.3267 8.3267673,8.3268055 0 0 1 -8.32678,8.3268 z"
       id="path4523"
       inkscape:connector-curvature="0" /><path
       inkscape:connector-curvature="0"
       id="path4525"
       d="m 954.51351,1107.9979 a 8.3267673,8.3268055 0 0 1 -8.32676,-8.3268 8.3267673,8.3268055 0 0 1 8.32676,-8.3267 8.3267673,8.3268055 0 0 1 8.32678,8.3267 8.3267673,8.3268055 0 0 1 -8.32678,8.3268 z"
       style="fill:none;fill-opacity:1;fill-rule:nonzero;stroke:#000000;stroke-width:1.0629921;stroke-miterlimit:1.5;stroke-dasharray:none;stroke-opacity:1" /><path
       style="fill:none;fill-opacity:1;fill-rule:nonzero;stroke:#000000;stroke-width:1.0629921;stroke-miterlimit:1.5;stroke-dasharray:none;stroke-opacity:1"
       d="m 666.33639,1499.7983 a 8.3267673,8.3268055 0 0 1 -8.32676,-8.3268 8.3267673,8.3268055 0 0 1 8.32676,-8.3267 8.3267673,8.3268055 0 0 1 8.32678,8.3267 8.3267673,8.3268055 0 0 1 -8.32678,8.3268 z"
       id="path4527"
       inkscape:connector-curvature="0" /><path
       style="fill:none;fill-opacity:1;fill-rule:nonzero;stroke:#000000;stroke-width:1.0629921;stroke-miterlimit:1.5;stroke-dasharray:none;stroke-opacity:1"
       d="m 514.3181,198.4375 a 8.3267673,8.3268055 0 0 1 -8.32676,-8.3268 8.3267673,8.3268055 0 0 1 8.32676,-8.3267 8.3267673,8.3268055 0 0 1 8.32678,8.3267 8.3267673,8.3268055 0 0 1 -8.32678,8.3268 z"
       id="path4529"
       inkscape:connector-curvature="0" /><path
       inkscape:connector-curvature="0"
       id="path4531"
       d="m 226.80397,589.575 a 8.3267673,8.3268055 0 0 1 -8.3268,-8.3268 8.3267673,8.3268055 0 0 1 8.3268,-8.3267 8.3267673,8.3268055 0 0 1 8.3267,8.3267 8.3267673,8.3268055 0 0 1 -8.3267,8.3268 z"
       style="fill:none;fill-opacity:1;fill-rule:nonzero;stroke:#000000;stroke-width:1.0629921;stroke-miterlimit:1.5;stroke-dasharray:none;stroke-opacity:1" /><path
       style="fill:none;fill-opacity:1;fill-rule:nonzero;stroke:#000000;stroke-width:1.0629921;stroke-miterlimit:1.5;stroke-dasharray:none;stroke-opacity:1"
       d="m 515.64399,650.5659 a 8.3267673,8.3268055 0 0 1 -8.32676,-8.3268 8.3267673,8.3268055 0 0 1 8.32676,-8.3267 8.3267673,8.3268055 0 0 1 8.32678,8.3267 8.3267673,8.3268055 0 0 1 -8.32678,8.3268 z"
       id="path4533"
       inkscape:connector-curvature="0" /><path
       inkscape:connector-curvature="0"
       id="path4535"
       d="m 226.14097,1044.3552 a 8.3267673,8.3268055 0 0 1 -8.3268,-8.3268 8.3267673,8.3268055 0 0 1 8.3268,-8.3267 8.3267673,8.3268055 0 0 1 8.3268,8.3267 8.3267673,8.3268055 0 0 1 -8.3268,8.3268 z"
       style="fill:none;fill-opacity:1;fill-rule:nonzero;stroke:#000000;stroke-width:1.0629921;stroke-miterlimit:1.5;stroke-dasharray:none;stroke-opacity:1" /><path
       style="fill:none;fill-opacity:1;fill-rule:nonzero;stroke:#000000;stroke-width:1.0629921;stroke-miterlimit:1.5;stroke-dasharray:none;stroke-opacity:1"
       d="m 514.3181,1106.672 a 8.3267673,8.3268055 0 0 1 -8.32676,-8.3268 8.3267673,8.3268055 0 0 1 8.32676,-8.3267 8.3267673,8.3268055 0 0 1 8.32678,8.3267 8.3267673,8.3268055 0 0 1 -8.32678,8.3268 z"
       id="path4537"
       inkscape:connector-curvature="0" /><path
       inkscape:connector-curvature="0"
       id="path4539"
       d="m 226.14097,1498.4724 a 8.3267673,8.3268055 0 0 1 -8.3268,-8.3268 8.3267673,8.3268055 0 0 1 8.3268,-8.3267 8.3267673,8.3268055 0 0 1 8.3268,8.3267 8.3267673,8.3268055 0 0 1 -8.3268,8.3268 z"
       style="fill:none;fill-opacity:1;fill-rule:nonzero;stroke:#000000;stroke-width:1.0629921;stroke-miterlimit:1.5;stroke-dasharray:none;stroke-opacity:1" /><path
       inkscape:connector-curvature="0"
       id="path4735"
       d="m 529.78382,347.59206 a 9.212617,9.212617 0 0 1 9.21256,9.21256 9.212617,9.212617 0 0 1 -9.21256,9.21264 9.212617,9.212617 0 0 1 -9.21263,-9.21264 9.212617,9.212617 0 0 1 9.21263,-9.21256 z"
       style="fill:none;fill-opacity:1;fill-rule:nonzero;stroke:#000000;stroke-width:1.0629921;stroke-miterlimit:1.5;stroke-dasharray:none;stroke-opacity:1" /><path
       style="fill:none;fill-opacity:1;fill-rule:nonzero;stroke:#000000;stroke-width:1.0629921;stroke-miterlimit:1.5;stroke-dasharray:none;stroke-opacity:1"
       d="m 529.78391,328.9897 a 27.815025,27.815025 0 0 1 27.81484,27.81485 27.815025,27.815025 0 0 1 -27.81484,27.81507 27.815025,27.815025 0 0 1 -27.81509,-27.81507 27.815025,27.815025 0 0 1 27.81509,-27.81485 z"
       id="path4737"
       inkscape:connector-curvature="0" /><path
       style="fill:none;fill-opacity:1;fill-rule:nonzero;stroke:#000000;stroke-width:1.0629921;stroke-miterlimit:1.5;stroke-dasharray:none;stroke-opacity:1"
       d="m 530.62742,409.17757 a 9.212617,9.212617 0 0 1 9.21256,9.21256 9.212617,9.212617 0 0 1 -9.21256,9.21264 9.212617,9.212617 0 0 1 -9.21263,-9.21264 9.212617,9.212617 0 0 1 9.21263,-9.21256 z"
       id="path4741"
       inkscape:connector-curvature="0" /><path
       inkscape:connector-curvature="0"
       id="path4743"
       d="m 530.62751,390.57521 a 27.815025,27.815025 0 0 1 27.81484,27.81485 27.815025,27.815025 0 0 1 -27.81484,27.81507 27.815025,27.815025 0 0 1 -27.81509,-27.81507 27.815025,27.815025 0 0 1 27.81509,-27.81485 z"
       style="fill:none;fill-opacity:1;fill-rule:nonzero;stroke:#000000;stroke-width:1.0629921;stroke-miterlimit:1.5;stroke-dasharray:none;stroke-opacity:1" /><path
       style="fill:none;fill-opacity:1;fill-rule:nonzero;stroke:#000000;stroke-width:1.0629921;stroke-miterlimit:1.5;stroke-dasharray:none;stroke-opacity:1"
       d="m 469.88552,345.90478 a 9.212617,9.212617 0 0 1 9.21256,9.21256 9.212617,9.212617 0 0 1 -9.21256,9.21264 9.212617,9.212617 0 0 1 -9.21263,-9.21264 9.212617,9.212617 0 0 1 9.21263,-9.21256 z"
       id="path4747"
       inkscape:connector-curvature="0" /><path
       inkscape:connector-curvature="0"
       id="path4749"
       d="m 469.88561,327.30242 a 27.815025,27.815025 0 0 1 27.81484,27.81485 27.815025,27.815025 0 0 1 -27.81484,27.81507 27.815025,27.815025 0 0 1 -27.81509,-27.81507 27.815025,27.815025 0 0 1 27.81509,-27.81485 z"
       style="fill:none;fill-opacity:1;fill-rule:nonzero;stroke:#000000;stroke-width:1.0629921;stroke-miterlimit:1.5;stroke-dasharray:none;stroke-opacity:1" /><path
       inkscape:connector-curvature="0"
       id="path4753"
       d="m 470.72922,407.49029 a 9.212617,9.212617 0 0 1 9.21256,9.21256 9.212617,9.212617 0 0 1 -9.21256,9.21264 9.212617,9.212617 0 0 1 -9.21263,-9.21264 9.212617,9.212617 0 0 1 9.21263,-9.21256 z"
       style="fill:none;fill-opacity:1;fill-rule:nonzero;stroke:#000000;stroke-width:1.0629921;stroke-miterlimit:1.5;stroke-dasharray:none;stroke-opacity:1" /><path
       style="fill:none;fill-opacity:1;fill-rule:nonzero;stroke:#000000;stroke-width:1.0629921;stroke-miterlimit:1.5;stroke-dasharray:none;stroke-opacity:1"
       d="m 470.72931,388.88793 a 27.815025,27.815025 0 0 1 27.81484,27.81485 27.815025,27.815025 0 0 1 -27.81484,27.81507 27.815025,27.815025 0 0 1 -27.81509,-27.81507 27.815025,27.815025 0 0 1 27.81509,-27.81485 z"
       id="path4755"
       inkscape:connector-curvature="0" /><path
       inkscape:connector-curvature="0"
       id="path4759"
       d="m 415.89276,377.11935 a 9.212617,9.212617 0 0 1 9.21256,9.21256 9.212617,9.212617 0 0 1 -9.21256,9.21264 9.212617,9.212617 0 0 1 -9.21263,-9.21264 9.212617,9.212617 0 0 1 9.21263,-9.21256 z"
       style="fill:none;fill-opacity:1;fill-rule:nonzero;stroke:#000000;stroke-width:1.0629921;stroke-miterlimit:1.5;stroke-dasharray:none;stroke-opacity:1" /><path
       style="fill:none;fill-opacity:1;fill-rule:nonzero;stroke:#000000;stroke-width:1.0629921;stroke-miterlimit:1.5;stroke-dasharray:none;stroke-opacity:1"
       d="m 415.89285,358.51699 a 27.815025,27.815025 0 0 1 27.81484,27.81485 27.815025,27.815025 0 0 1 -27.81484,27.81507 27.815025,27.815025 0 0 1 -27.81509,-27.81507 27.815025,27.815025 0 0 1 27.81509,-27.81485 z"
       id="path4761"
       inkscape:connector-curvature="0" /><path
       style="fill:none;fill-opacity:1;fill-rule:nonzero;stroke:#000000;stroke-width:1.0629921;stroke-miterlimit:1.5;stroke-dasharray:none;stroke-opacity:1"
       d="m 416.7364,438.70486 a 9.212617,9.212617 0 0 1 9.21256,9.21256 9.212617,9.212617 0 0 1 -9.21256,9.21264 9.212617,9.212617 0 0 1 -9.21263,-9.21264 9.212617,9.212617 0 0 1 9.21263,-9.21256 z"
       id="path4765"
       inkscape:connector-curvature="0" /><path
       inkscape:connector-curvature="0"
       id="path4767"
       d="m 416.73649,420.1025 a 27.815025,27.815025 0 0 1 27.81484,27.81485 27.815025,27.815025 0 0 1 -27.81484,27.81507 27.815025,27.815025 0 0 1 -27.81509,-27.81507 27.815025,27.815025 0 0 1 27.81509,-27.81485 z"
       style="fill:none;fill-opacity:1;fill-rule:nonzero;stroke:#000000;stroke-width:1.0629921;stroke-miterlimit:1.5;stroke-dasharray:none;stroke-opacity:1" /><path
       style="fill:none;fill-opacity:1;fill-rule:nonzero;stroke:#000000;stroke-width:1.0629921;stroke-miterlimit:1.5;stroke-dasharray:none;stroke-opacity:1"
       d="m 360.2127,348.43569 a 9.212617,9.212617 0 0 1 9.21256,9.21256 9.212617,9.212617 0 0 1 -9.21256,9.21264 9.212617,9.212617 0 0 1 -9.21263,-9.21264 9.212617,9.212617 0 0 1 9.21263,-9.21256 z"
       id="path4771"
       inkscape:connector-curvature="0" /><path
       inkscape:connector-curvature="0"
       id="path4773"
       d="m 360.21279,329.83333 a 27.815025,27.815025 0 0 1 27.81484,27.81485 27.815025,27.815025 0 0 1 -27.81484,27.81507 27.815025,27.815025 0 0 1 -27.81509,-27.81507 27.815025,27.815025 0 0 1 27.81509,-27.81485 z"
       style="fill:none;fill-opacity:1;fill-rule:nonzero;stroke:#000000;stroke-width:1.0629921;stroke-miterlimit:1.5;stroke-dasharray:none;stroke-opacity:1" /><path
       inkscape:connector-curvature="0"
       id="path4777"
       d="m 361.05635,410.0212 a 9.212617,9.212617 0 0 1 9.21256,9.21256 9.212617,9.212617 0 0 1 -9.21256,9.21264 9.212617,9.212617 0 0 1 -9.21263,-9.21264 9.212617,9.212617 0 0 1 9.21263,-9.21256 z"
       style="fill:none;fill-opacity:1;fill-rule:nonzero;stroke:#000000;stroke-width:1.0629921;stroke-miterlimit:1.5;stroke-dasharray:none;stroke-opacity:1" /><path
       style="fill:none;fill-opacity:1;fill-rule:nonzero;stroke:#000000;stroke-width:1.0629921;stroke-miterlimit:1.5;stroke-dasharray:none;stroke-opacity:1"
       d="m 361.05644,391.41884 a 27.815025,27.815025 0 0 1 27.81484,27.81485 27.815025,27.815025 0 0 1 -27.81484,27.81507 27.815025,27.815025 0 0 1 -27.81509,-27.81507 27.815025,27.815025 0 0 1 27.81509,-27.81485 z"
       id="path4779"
       inkscape:connector-curvature="0" /><path
       inkscape:connector-curvature="0"
       id="path4783"
       d="m 301.1581,318.06475 a 9.212617,9.212617 0 0 1 9.21256,9.21256 9.212617,9.212617 0 0 1 -9.21256,9.21264 9.212617,9.212617 0 0 1 -9.21263,-9.21264 9.212617,9.212617 0 0 1 9.21263,-9.21256 z"
       style="fill:none;fill-opacity:1;fill-rule:nonzero;stroke:#000000;stroke-width:1.0629921;stroke-miterlimit:1.5;stroke-dasharray:none;stroke-opacity:1" /><path
       style="fill:none;fill-opacity:1;fill-rule:nonzero;stroke:#000000;stroke-width:1.0629921;stroke-miterlimit:1.5;stroke-dasharray:none;stroke-opacity:1"
       d="m 301.15819,299.46239 a 27.815025,27.815025 0 0 1 27.81484,27.81485 27.815025,27.815025 0 0 1 -27.81484,27.81507 27.815025,27.815025 0 0 1 -27.81509,-27.81507 27.815025,27.815025 0 0 1 27.81509,-27.81485 z"
       id="path4785"
       inkscape:connector-curvature="0" /><path
       style="fill:none;fill-opacity:1;fill-rule:nonzero;stroke:#000000;stroke-width:1.0629921;stroke-miterlimit:1.5;stroke-dasharray:none;stroke-opacity:1"
       d="m 302.00174,379.65026 a 9.212617,9.212617 0 0 1 9.21256,9.21256 9.212617,9.212617 0 0 1 -9.21256,9.21264 9.212617,9.212617 0 0 1 -9.21263,-9.21264 9.212617,9.212617 0 0 1 9.21263,-9.21256 z"
       id="path4789"
       inkscape:connector-curvature="0" /><path
       inkscape:connector-curvature="0"
       id="path4791"
       d="m 302.00183,361.0479 a 27.815025,27.815025 0 0 1 27.81484,27.81485 27.815025,27.815025 0 0 1 -27.81484,27.81507 27.815025,27.815025 0 0 1 -27.81509,-27.81507 27.815025,27.815025 0 0 1 27.81509,-27.81485 z"
       style="fill:none;fill-opacity:1;fill-rule:nonzero;stroke:#000000;stroke-width:1.0629921;stroke-miterlimit:1.5;stroke-dasharray:none;stroke-opacity:1" /><path
       style="fill:none;fill-opacity:1;fill-rule:nonzero;stroke:#000000;stroke-width:1.0629921;stroke-miterlimit:1.5;stroke-dasharray:none;stroke-opacity:1"
       d="m 239.57259,342.53023 a 9.212617,9.212617 0 0 1 9.21256,9.21256 9.212617,9.212617 0 0 1 -9.21256,9.21264 9.212617,9.212617 0 0 1 -9.21263,-9.21264 9.212617,9.212617 0 0 1 9.21263,-9.21256 z"
       id="path4795"
       inkscape:connector-curvature="0" /><path
       inkscape:connector-curvature="0"
       id="path4797"
       d="m 239.57268,323.92787 a 27.815025,27.815025 0 0 1 27.81484,27.81485 27.815025,27.815025 0 0 1 -27.81484,27.81507 27.815025,27.815025 0 0 1 -27.81509,-27.81507 27.815025,27.815025 0 0 1 27.81509,-27.81485 z"
       style="fill:none;fill-opacity:1;fill-rule:nonzero;stroke:#000000;stroke-width:1.0629921;stroke-miterlimit:1.5;stroke-dasharray:none;stroke-opacity:1" /><path
       inkscape:connector-curvature="0"
       id="path4801"
       d="m 240.41623,404.11574 a 9.212617,9.212617 0 0 1 9.21256,9.21256 9.212617,9.212617 0 0 1 -9.21256,9.21264 9.212617,9.212617 0 0 1 -9.21263,-9.21264 9.212617,9.212617 0 0 1 9.21263,-9.21256 z"
       style="fill:none;fill-opacity:1;fill-rule:nonzero;stroke:#000000;stroke-width:1.0629921;stroke-miterlimit:1.5;stroke-dasharray:none;stroke-opacity:1" /><path
       style="fill:none;fill-opacity:1;fill-rule:nonzero;stroke:#000000;stroke-width:1.0629921;stroke-miterlimit:1.5;stroke-dasharray:none;stroke-opacity:1"
       d="m 240.41632,385.51338 a 27.815025,27.815025 0 0 1 27.81484,27.81485 27.815025,27.815025 0 0 1 -27.81484,27.81507 27.815025,27.815025 0 0 1 -27.81509,-27.81507 27.815025,27.815025 0 0 1 27.81509,-27.81485 z"
       id="path4803"
       inkscape:connector-curvature="0" /><path
       style="fill:none;fill-opacity:1;fill-rule:nonzero;stroke:#000000;stroke-width:1.0629921;stroke-miterlimit:1.5;stroke-dasharray:none;stroke-opacity:1"
       d="m 981.97332,348.4357 a 9.212617,9.212617 0 0 1 9.21256,9.21256 9.212617,9.212617 0 0 1 -9.21256,9.21264 9.212617,9.212617 0 0 1 -9.21263,-9.21264 9.212617,9.212617 0 0 1 9.21263,-9.21256 z"
       id="path4807"
       inkscape:connector-curvature="0" /><path
       inkscape:connector-curvature="0"
       id="path4809"
       d="m 981.97341,329.83334 a 27.815025,27.815025 0 0 1 27.81479,27.81485 27.815025,27.815025 0 0 1 -27.81479,27.81507 27.815025,27.815025 0 0 1 -27.81509,-27.81507 27.815025,27.815025 0 0 1 27.81509,-27.81485 z"
       style="fill:none;fill-opacity:1;fill-rule:nonzero;stroke:#000000;stroke-width:1.0629921;stroke-miterlimit:1.5;stroke-dasharray:none;stroke-opacity:1" /><path
       inkscape:connector-curvature="0"
       id="path4813"
       d="m 982.81692,410.02121 a 9.212617,9.212617 0 0 1 9.21256,9.21256 9.212617,9.212617 0 0 1 -9.21256,9.21264 9.212617,9.212617 0 0 1 -9.21263,-9.21264 9.212617,9.212617 0 0 1 9.21263,-9.21256 z"
       style="fill:none;fill-opacity:1;fill-rule:nonzero;stroke:#000000;stroke-width:1.0629921;stroke-miterlimit:1.5;stroke-dasharray:none;stroke-opacity:1" /><path
       style="fill:none;fill-opacity:1;fill-rule:nonzero;stroke:#000000;stroke-width:1.0629921;stroke-miterlimit:1.5;stroke-dasharray:none;stroke-opacity:1"
       d="m 982.81701,391.41885 a 27.815025,27.815025 0 0 1 27.81489,27.81485 27.815025,27.815025 0 0 1 -27.81489,27.81507 27.815025,27.815025 0 0 1 -27.81509,-27.81507 27.815025,27.815025 0 0 1 27.81509,-27.81485 z"
       id="path4815"
       inkscape:connector-curvature="0" /><path
       inkscape:connector-curvature="0"
       id="path4819"
       d="m 922.07502,346.74842 a 9.212617,9.212617 0 0 1 9.21256,9.21256 9.212617,9.212617 0 0 1 -9.21256,9.21264 9.212617,9.212617 0 0 1 -9.21263,-9.21264 9.212617,9.212617 0 0 1 9.21263,-9.21256 z"
       style="fill:none;fill-opacity:1;fill-rule:nonzero;stroke:#000000;stroke-width:1.0629921;stroke-miterlimit:1.5;stroke-dasharray:none;stroke-opacity:1" /><path
       style="fill:none;fill-opacity:1;fill-rule:nonzero;stroke:#000000;stroke-width:1.0629921;stroke-miterlimit:1.5;stroke-dasharray:none;stroke-opacity:1"
       d="m 922.07511,328.14606 a 27.815025,27.815025 0 0 1 27.81484,27.81485 27.815025,27.815025 0 0 1 -27.81484,27.81507 27.815025,27.815025 0 0 1 -27.81509,-27.81507 27.815025,27.815025 0 0 1 27.81509,-27.81485 z"
       id="path4821"
       inkscape:connector-curvature="0" /><path
       style="fill:none;fill-opacity:1;fill-rule:nonzero;stroke:#000000;stroke-width:1.0629921;stroke-miterlimit:1.5;stroke-dasharray:none;stroke-opacity:1"
       d="m 922.91872,408.33393 a 9.212617,9.212617 0 0 1 9.21256,9.21256 9.212617,9.212617 0 0 1 -9.21256,9.21264 9.212617,9.212617 0 0 1 -9.21263,-9.21264 9.212617,9.212617 0 0 1 9.21263,-9.21256 z"
       id="path4825"
       inkscape:connector-curvature="0" /><path
       inkscape:connector-curvature="0"
       id="path4827"
       d="m 922.91881,389.73157 a 27.815025,27.815025 0 0 1 27.81484,27.81485 27.815025,27.815025 0 0 1 -27.81484,27.81507 27.815025,27.815025 0 0 1 -27.81509,-27.81507 27.815025,27.815025 0 0 1 27.81509,-27.81485 z"
       style="fill:none;fill-opacity:1;fill-rule:nonzero;stroke:#000000;stroke-width:1.0629921;stroke-miterlimit:1.5;stroke-dasharray:none;stroke-opacity:1" /><path
       style="fill:none;fill-opacity:1;fill-rule:nonzero;stroke:#000000;stroke-width:1.0629921;stroke-miterlimit:1.5;stroke-dasharray:none;stroke-opacity:1"
       d="m 868.08222,377.96299 a 9.212617,9.212617 0 0 1 9.21256,9.21256 9.212617,9.212617 0 0 1 -9.21256,9.21264 9.212617,9.212617 0 0 1 -9.21263,-9.21264 9.212617,9.212617 0 0 1 9.21263,-9.21256 z"
       id="path4831"
       inkscape:connector-curvature="0" /><path
       inkscape:connector-curvature="0"
       id="path4833"
       d="m 868.08231,359.36063 a 27.815025,27.815025 0 0 1 27.81484,27.81485 27.815025,27.815025 0 0 1 -27.81484,27.81507 27.815025,27.815025 0 0 1 -27.81509,-27.81507 27.815025,27.815025 0 0 1 27.81509,-27.81485 z"
       style="fill:none;fill-opacity:1;fill-rule:nonzero;stroke:#000000;stroke-width:1.0629921;stroke-miterlimit:1.5;stroke-dasharray:none;stroke-opacity:1" /><path
       inkscape:connector-curvature="0"
       id="path4837"
       d="m 868.92592,439.5485 a 9.212617,9.212617 0 0 1 9.21256,9.21256 9.212617,9.212617 0 0 1 -9.21256,9.21264 9.212617,9.212617 0 0 1 -9.21263,-9.21264 9.212617,9.212617 0 0 1 9.21263,-9.21256 z"
       style="fill:none;fill-opacity:1;fill-rule:nonzero;stroke:#000000;stroke-width:1.0629921;stroke-miterlimit:1.5;stroke-dasharray:none;stroke-opacity:1" /><path
       style="fill:none;fill-opacity:1;fill-rule:nonzero;stroke:#000000;stroke-width:1.0629921;stroke-miterlimit:1.5;stroke-dasharray:none;stroke-opacity:1"
       d="m 868.92601,420.94614 a 27.815025,27.815025 0 0 1 27.81484,27.81485 27.815025,27.815025 0 0 1 -27.81484,27.81507 27.815025,27.815025 0 0 1 -27.81509,-27.81507 27.815025,27.815025 0 0 1 27.81509,-27.81485 z"
       id="path4839"
       inkscape:connector-curvature="0" /><path
       inkscape:connector-curvature="0"
       id="path4843"
       d="m 812.40222,349.27933 a 9.212617,9.212617 0 0 1 9.21256,9.21256 9.212617,9.212617 0 0 1 -9.21256,9.21264 9.212617,9.212617 0 0 1 -9.21263,-9.21264 9.212617,9.212617 0 0 1 9.21263,-9.21256 z"
       style="fill:none;fill-opacity:1;fill-rule:nonzero;stroke:#000000;stroke-width:1.0629921;stroke-miterlimit:1.5;stroke-dasharray:none;stroke-opacity:1" /><path
       style="fill:none;fill-opacity:1;fill-rule:nonzero;stroke:#000000;stroke-width:1.0629921;stroke-miterlimit:1.5;stroke-dasharray:none;stroke-opacity:1"
       d="m 812.40231,330.67697 a 27.815025,27.815025 0 0 1 27.81484,27.81485 27.815025,27.815025 0 0 1 -27.81484,27.81507 27.815025,27.815025 0 0 1 -27.81509,-27.81507 27.815025,27.815025 0 0 1 27.81509,-27.81485 z"
       id="path4845"
       inkscape:connector-curvature="0" /><path
       style="fill:none;fill-opacity:1;fill-rule:nonzero;stroke:#000000;stroke-width:1.0629921;stroke-miterlimit:1.5;stroke-dasharray:none;stroke-opacity:1"
       d="m 813.24582,410.86484 a 9.212617,9.212617 0 0 1 9.21256,9.21256 9.212617,9.212617 0 0 1 -9.21256,9.21264 9.212617,9.212617 0 0 1 -9.21263,-9.21264 9.212617,9.212617 0 0 1 9.21263,-9.21256 z"
       id="path4849"
       inkscape:connector-curvature="0" /><path
       inkscape:connector-curvature="0"
       id="path4851"
       d="m 813.24591,392.26248 a 27.815025,27.815025 0 0 1 27.81484,27.81485 27.815025,27.815025 0 0 1 -27.81484,27.81507 27.815025,27.815025 0 0 1 -27.81509,-27.81507 27.815025,27.815025 0 0 1 27.81509,-27.81485 z"
       style="fill:none;fill-opacity:1;fill-rule:nonzero;stroke:#000000;stroke-width:1.0629921;stroke-miterlimit:1.5;stroke-dasharray:none;stroke-opacity:1" /><path
       style="fill:none;fill-opacity:1;fill-rule:nonzero;stroke:#000000;stroke-width:1.0629921;stroke-miterlimit:1.5;stroke-dasharray:none;stroke-opacity:1"
       d="m 753.34762,318.90839 a 9.212617,9.212617 0 0 1 9.21256,9.21256 9.212617,9.212617 0 0 1 -9.21256,9.21264 9.212617,9.212617 0 0 1 -9.21263,-9.21264 9.212617,9.212617 0 0 1 9.21263,-9.21256 z"
       id="path4855"
       inkscape:connector-curvature="0" /><path
       inkscape:connector-curvature="0"
       id="path4857"
       d="m 753.34771,300.30603 a 27.815025,27.815025 0 0 1 27.81484,27.81485 27.815025,27.815025 0 0 1 -27.81484,27.81507 27.815025,27.815025 0 0 1 -27.81509,-27.81507 27.815025,27.815025 0 0 1 27.81509,-27.81485 z"
       style="fill:none;fill-opacity:1;fill-rule:nonzero;stroke:#000000;stroke-width:1.0629921;stroke-miterlimit:1.5;stroke-dasharray:none;stroke-opacity:1" /><path
       inkscape:connector-curvature="0"
       id="path4861"
       d="m 754.19122,380.4939 a 9.212617,9.212617 0 0 1 9.21256,9.21256 9.212617,9.212617 0 0 1 -9.21256,9.21264 9.212617,9.212617 0 0 1 -9.21263,-9.21264 9.212617,9.212617 0 0 1 9.21263,-9.21256 z"
       style="fill:none;fill-opacity:1;fill-rule:nonzero;stroke:#000000;stroke-width:1.0629921;stroke-miterlimit:1.5;stroke-dasharray:none;stroke-opacity:1" /><path
       style="fill:none;fill-opacity:1;fill-rule:nonzero;stroke:#000000;stroke-width:1.0629921;stroke-miterlimit:1.5;stroke-dasharray:none;stroke-opacity:1"
       d="m 754.19131,361.89154 a 27.815025,27.815025 0 0 1 27.81484,27.81485 27.815025,27.815025 0 0 1 -27.81484,27.81507 27.815025,27.815025 0 0 1 -27.81509,-27.81507 27.815025,27.815025 0 0 1 27.81509,-27.81485 z"
       id="path4863"
       inkscape:connector-curvature="0" /><path
       inkscape:connector-curvature="0"
       id="path4867"
       d="m 691.76212,343.37387 a 9.212617,9.212617 0 0 1 9.21256,9.21256 9.212617,9.212617 0 0 1 -9.21256,9.21264 9.212617,9.212617 0 0 1 -9.21263,-9.21264 9.212617,9.212617 0 0 1 9.21263,-9.21256 z"
       style="fill:none;fill-opacity:1;fill-rule:nonzero;stroke:#000000;stroke-width:1.0629921;stroke-miterlimit:1.5;stroke-dasharray:none;stroke-opacity:1" /><path
       style="fill:none;fill-opacity:1;fill-rule:nonzero;stroke:#000000;stroke-width:1.0629921;stroke-miterlimit:1.5;stroke-dasharray:none;stroke-opacity:1"
       d="m 691.76221,324.77151 a 27.815025,27.815025 0 0 1 27.81484,27.81485 27.815025,27.815025 0 0 1 -27.81484,27.81507 27.815025,27.815025 0 0 1 -27.81509,-27.81507 27.815025,27.815025 0 0 1 27.81509,-27.81485 z"
       id="path4869"
       inkscape:connector-curvature="0" /><path
       style="fill:none;fill-opacity:1;fill-rule:nonzero;stroke:#000000;stroke-width:1.0629921;stroke-miterlimit:1.5;stroke-dasharray:none;stroke-opacity:1"
       d="m 692.60572,404.95938 a 9.212617,9.212617 0 0 1 9.21256,9.21256 9.212617,9.212617 0 0 1 -9.21256,9.21264 9.212617,9.212617 0 0 1 -9.21263,-9.21264 9.212617,9.212617 0 0 1 9.21263,-9.21256 z"
       id="path4873"
       inkscape:connector-curvature="0" /><path
       inkscape:connector-curvature="0"
       id="path4875"
       d="m 692.60581,386.35702 a 27.815025,27.815025 0 0 1 27.81484,27.81485 27.815025,27.815025 0 0 1 -27.81484,27.81507 27.815025,27.815025 0 0 1 -27.81509,-27.81507 27.815025,27.815025 0 0 1 27.81509,-27.81485 z"
       style="fill:none;fill-opacity:1;fill-rule:nonzero;stroke:#000000;stroke-width:1.0629921;stroke-miterlimit:1.5;stroke-dasharray:none;stroke-opacity:1" /><path
       id="path4295"
       style="clip-rule:evenodd;fill:none;fill-rule:evenodd;stroke:#000000;stroke-width:1.0629921;stroke-linecap:round;stroke-linejoin:round;stroke-miterlimit:1.5;stroke-dasharray:none;stroke-opacity:1"
       d="m 75.411024,1885.8244 24,0 0,15.5 40.499996,0 0,-15.5 39.4,0 0,15.5 40.4,0 0,-15.5 39.4,0 0,15.5 40.5,0 0,-15.5 39.3,0 0,15.5 40.5,0 0,-15.5 39.4,0 0,15.5 40.4,0 0,-15.5 39.4,0 0,15.5 40.5,0 0,-15.5 39.3,0 0,15.5 40.5,0 0,-15.5 39.4,0 0,15.5 40.4,0 0,-15.5 39.4,0 0,15.5 40.5,0 0,-15.5 39.3,0 0,15.5 40.5,0 0,-15.5 39.3,0 0,15.5 40.5,0 0,-15.5 39.4,0 0,15.5 40.49998,0 0,-15.5 39.3,0 0,15.5 40.5,0 0,-15.5 24,0 0,-23.4 15.6,0 0,-39.8 -15.6,0 0,-38.6 15.6,0 0,-39.8 -15.6,0 0,-38.6 15.6,0 0,-39.8 -15.6,0 0,-38.7 15.6,0 0,-39.8 -15.6,0 0,-38.6 15.6,0 0,-39.8 -15.6,0 0,-38.6 15.6,0 0,-39.8 -15.6,0 0,-38.7 15.6,0 0,-39.7 -15.6,0 0,-38.7 15.6,0 0,-39.8 -15.6,0 0,-38.6 15.6,0 0,-39.8 -15.6,0 0,-38.6 15.6,0 0,-39.8 -15.6,0 0,-38.7 15.6,0 0,-39.8 -15.6,0 0,-38.59999 15.6,0 0,-39.8 -15.6,0 0,-38.6 15.6,0 0,-39.8 -15.6,0 0,-38.7 15.6,0 0,-39.7 -15.6,0 0,-38.7 15.6,0 0,-39.8 -15.6,0 0,-38.6 15.6,0 0,-39.8 -15.6,0 0,-38.7 15.6,0 0,-39.7 -15.6,0 0,-38.7 15.6,0 0,-39.8 -15.6,0 0,-38.6 15.6,0 0,-39.8 -15.6,0 0,-38.6 15.6,0 0,-39.8 -15.6,0 0,-38.7 15.6,0 0,-39.8 -15.6,0 0,-38.6 15.6,0 0,-39.8 -15.6,0 0,-38.6 15.6,0 0,-39.800001 -15.6,0 0,-23.4 -24,0 0,-15.5 -40.5,0 0,15.5 -39.3,0 0,-15.5 -40.49998,0 0,15.5 -39.4,0 0,-15.5 -40.5,0 0,15.5 -39.3,0 0,-15.5 -40.5,0 0,15.5 -39.3,0 0,-15.5 -40.5,0 0,15.5 -39.4,0 0,-15.5 -40.4,0 0,15.5 -39.4,0 0,-15.5 -40.5,0 0,15.5 -39.3,0 0,-15.5 -40.5,0 0,15.5 -39.4,0 0,-15.5 -40.4,0 0,15.5 -39.4,0 0,-15.5 -40.5,0 0,15.5 -39.3,0 0,-15.5 -40.5,0 0,15.5 -39.4,0 0,-15.5 -40.4,0 0,15.5 -39.4,0 0,-15.5 -40.499996,0 0,15.5 -24,0 0,23.4 -15.6,0 0,39.800001 15.6,0 0,38.6 -15.6,0 0,39.8 15.6,0 0,38.6 -15.6,0 0,39.8 15.6,0 0,38.7 -15.6,0 0,39.8 15.6,0 0,38.6 -15.6,0 0,39.8 15.6,0 0,38.6 -15.6,0 0,39.8 15.6,0 0,38.7 -15.6,0 0,39.7 15.6,0 0,38.7 -15.6,0 0,39.8 15.6,0 0,38.6 -15.6,0 0,39.8 15.6,0 0,38.7 -15.6,0 0,39.7 15.6,0 0,38.7 -15.6,0 0,39.8 15.6,0 0,38.6 -15.6,0 0,39.8 15.6,0 0,38.59999 -15.6,0 0,39.8 15.6,0 0,38.7 -15.6,0 0,39.8 15.6,0 0,38.6 -15.6,0 0,39.8 15.6,0 0,38.6 -15.6,0 0,39.8 15.6,0 0,38.7 -15.6,0 0,39.7 15.6,0 0,38.7 -15.6,0 0,39.8 15.6,0 0,38.6 -15.6,0 0,39.8 15.6,0 0,38.6 -15.6,0 0,39.8 15.6,0 0,38.7 -15.6,0 0,39.8 15.6,0 0,38.6 -15.6,0 0,39.8 15.6,0 0,38.6 -15.6,0 0,39.8 15.6,0 z"
       inkscape:connector-curvature="0" /></g><g
     id="g4322"
     transform="translate(0,30)"><path
       style="fill:none;fill-opacity:1;fill-rule:nonzero;stroke:#000000;stroke-width:1.0629921;stroke-miterlimit:1.5;stroke-dasharray:none;stroke-opacity:1"
       d="m 2734.4473,700.6798 a 43.759844,43.759828 0 0 1 -43.7599,-43.7598 43.759844,43.759828 0 0 1 43.7599,-43.7599 43.759844,43.759828 0 0 1 43.7598,43.7599 43.759844,43.759828 0 0 1 -43.7598,43.7598 z"
       id="path4400"
       inkscape:connector-curvature="0" /><path
       inkscape:connector-curvature="0"
       id="path4402"
       d="m 2734.4473,910.6798 a 43.759844,43.759828 0 0 1 -43.7599,-43.7598 43.759844,43.759828 0 0 1 43.7599,-43.7599 43.759844,43.759828 0 0 1 43.7598,43.7599 43.759844,43.759828 0 0 1 -43.7598,43.7598 z"
       style="fill:none;fill-opacity:1;fill-rule:nonzero;stroke:#000000;stroke-width:1.0629921;stroke-miterlimit:1.5;stroke-dasharray:none;stroke-opacity:1" /><path
       id="path4297"
       style="clip-rule:evenodd;fill:none;fill-rule:evenodd;stroke:#000000;stroke-width:1.0629921;stroke-linecap:round;stroke-linejoin:round;stroke-miterlimit:1.5;stroke-dasharray:none;stroke-opacity:1"
       d="m 2661.8008,588.29224 0,-39.3 -15.6,0 0,-40.5 15.6,0 0,-39.4 -15.6,0 0,-40.5 15.6,0 0,-39.3 -15.6,0 0,-40.5 15.6,0 0,-39.3 -15.6,0 0,-40.5 15.6,0 0,-39.4 -15.6,0 0,-40.5 15.6,0 0,-39.3 -15.6,0 0,-40.5 15.6,0 0,-39.300005 -15.6,0 0,-40.2 57.1,0 0,15.5 56.4,0 0,-15.5 57.1,0 0,1062.099965 -56.6,0 0,15.6 -57.4,0 0,-15.6 -56.6,0 0,-24.6 15.6,0 0,-39.4 -15.6,0 0,-40.39996 15.6,0 0,-39.4 -15.6,0 0,-40.5 15.6,0 0,-39.3 -15.6,0 0,-40.5 15.6,0 0,-39.4 -15.6,0 0,-40.4 15.6,0 0,-39.4 -15.6,0 0,-40.5 15.6,0 0,-39.3 -15.6,0 0,-40.5 z"
       inkscape:connector-curvature="0" /></g><path
     inkscape:connector-curvature="0"
     d="m 2408.0478,1164.2764 -15.6,0 0,-38.7 15.6,0 0,-39.7 -15.6,0 0,-38.7 15.6,0 0,-39.8 -15.6,0 0,-38.60001 15.6,0 0,-39.8 -15.6,0 0,-38.7 15.6,0 0,-39.7 -15.6,0 0,-38.7 15.6,0 0,-39.8 -15.6,0 0,-38.6 15.6,0 0,-39.8 -15.6,0 0,-38.6 15.6,0 0,-39.8 -15.6,0 0,-38.7 15.6,0 0,-39.7 -15.6,0 0,-38.7 15.6,0 0,-39.8 -15.6,0 0,-38.6 15.6,0 0,-39.8 -15.6,0 0,-38.7 15.6,0 0,-39.7 -15.6,0 0,-38.7 15.6,0 0,-39.8 -15.6,0 0,-38.6 15.6,0 0,-39.8 -15.6,0 0,-38.6 15.6,0 0,-39.499999 -56.6,0 0,15.5 -57.5,0 0,-15.5 -56.6,0 0,1827.500009 56.6,0 0,15.5 57.5,0 0,-15.5 56.6,0 0,-24 -15.6,0 0,-38.6 15.6,0 0,-39.8 -15.6,0 0,-38.6 15.6,0 0,-39.8 -15.6,0 0,-38.7 15.6,0 0,-39.7 -15.6,0 0,-38.7 15.6,0 0,-39.8 -15.6,0 0,-38.6 15.6,0 0,-39.8 -15.6,0 0,-38.6 15.6,0 0,-39.8 -15.6,0 0,-38.7 15.6,0 0,-39.8 -15.6,0 0,-38.6 15.6,0 0,-39.8 -15.6,0 0,-38.6 15.6,0 z"
     style="clip-rule:evenodd;fill:none;fill-rule:evenodd;stroke:#000000;stroke-width:1.0629921;stroke-linecap:round;stroke-linejoin:round;stroke-miterlimit:1.5;stroke-dasharray:none;stroke-opacity:1"
     id="path4299" /><g
     id="g4424"><path
       inkscape:connector-curvature="0"
       id="rect4394"
       d="m 2211.9536,65.1844 0,1807.0654 -1041.6686,0 0,-1807.0654 z"
       style="fill:none;fill-opacity:1;fill-rule:nonzero;stroke:#000000;stroke-width:1.0629921;stroke-miterlimit:1.5;stroke-dasharray:none;stroke-opacity:1" /><path
       inkscape:connector-curvature="0"
       id="path4397"
       d="m 1465.6308,1761.4302 a 70.334652,70.334627 0 0 1 -70.3347,-70.3346 70.334652,70.334627 0 0 1 70.3347,-70.3347 70.334652,70.334627 0 0 1 70.3346,70.3347 70.334652,70.334627 0 0 1 -70.3346,70.3346 z"
       style="fill:none;fill-opacity:1;fill-rule:nonzero;stroke:#000000;stroke-width:1.0629921;stroke-miterlimit:1.5;stroke-dasharray:none;stroke-opacity:1" /><path
       style="fill:none;fill-opacity:1;fill-rule:nonzero;stroke:#000000;stroke-width:1.0629921;stroke-miterlimit:1.5;stroke-dasharray:none;stroke-opacity:1"
       d="m 2090.1052,1003.6187 a 34.901576,34.901563 0 0 1 -34.9016,-34.90161 34.901576,34.901563 0 0 1 34.9016,-34.90158 34.901576,34.901563 0 0 1 34.9015,34.90158 34.901576,34.901563 0 0 1 -34.9015,34.90161 z"
       id="path4422"
       inkscape:connector-curvature="0" /></g></svg>